# xmcd
#
# Track frame offsets:
#	150
#	16867
#	26599
#	36798
#	53003
#	69828
#	87667
#	103319
#	114572
#	128844
#	142791
#	157197
#	175643
#	193087
#	208921
#	229462
#	245904
#	260798
#	275960
#	292641
#	306878
#	326908
#	341928
#
# Disc length: 4786 seconds
#
# Revision: 1
# Processed by: cddbd v1.5.2PL0 Copyright (c) Steve Scherf et al.
# Submitted via: EasyCDDAExtractor 16.0.4.1
#
DISCID=6712b017
DTITLE=Various Artist - DMCDJECDP1 
DYEAR=2015
DGENRE=Country
TTITLE0=Aloe Blacc  - Wake Me Up (Acoustic) 
TTITLE1=Arrow - Hot Hot Hot (Line Dance Re Work)
TTITLE2=Bellamy Brothers  - Let Your Love Flow (Remix) 
TTITLE3=Carpenters  - Jambalaya (On the Bayou) 
TTITLE4=Carrie Underwood  - Something In The Water
TTITLE5=Commitments - Mustang Sally
TTITLE6=Dolly Parton  - 9 To 5 (Love To Infinity Radio) 
TTITLE7=Donny and Marie Osmond - A Little Bit Country - A Little Bit Rock 'N' Ro
TTITLE7=ll
TTITLE8=George Ezra  - Blame It On Me 
TTITLE9=Hannah Montana  - Ice Cream Freeze (Let's Chill) 
TTITLE10=Hermes House Band  - Country Roads 
TTITLE11=Kenny Rogers and Dolly Parton - Islands In The Stream
TTITLE12=Lady Antebellum  - Need You Now 
TTITLE13=Leann Rimes  - Can't Fight The Moonlight (Latino Mix) 
TTITLE14=Mumford and Sons  - I Will Wait 
TTITLE15=Olivia Newton John  - Me And Bobby McGee (Reworked) 
TTITLE16=Osmond Brothers - Baby When Your Heart Breaks Down
TTITLE17=Pitbull Fe. Ke$ha - Timber 
TTITLE18=Rascal Flatts  - Backwards
TTITLE19=Rednex  - Cotton Eye Joe 
TTITLE20=Shania Twain  - That Don't Impress Me Much (Dance Mix) 
TTITLE21=Steps  - 5, 6, 7, 8 
TTITLE22=Taylor Swift  - Love Story (J Stax Club Mix) 
EXTD=
EXTT0=
EXTT1=
EXTT2=
EXTT3=
EXTT4=
EXTT5=
EXTT6=
EXTT7=
EXTT8=
EXTT9=
EXTT10=
EXTT11=
EXTT12=
EXTT13=
EXTT14=
EXTT15=
EXTT16=
EXTT17=
EXTT18=
EXTT19=
EXTT20=
EXTT21=
EXTT22=
PLAYORDER=
